<?xml version="1.0" standalone="no"?>
<!DOCTYPE svg PUBLIC "-//W3C//DTD SVG 20010904//EN"
 "http://www.w3.org/TR/2001/REC-SVG-20010904/DTD/svg10.dtd">
<svg version="1.0" xmlns="http://www.w3.org/2000/svg"
 width="500.000000pt" height="500.000000pt" viewBox="0 0 500.000000 500.000000"
 preserveAspectRatio="xMidYMid meet">
<metadata>
Created by potrace 1.14, written by Peter Selinger 2001-2017
</metadata>
<g transform="translate(0.000000,500.000000) scale(0.100000,-0.100000)"
fill="#000000" stroke="none">
<path d="M0 2883 c0 -1783 2 -2114 14 -2098 11 17 1454 2514 1615 2797 l56 98
408 0 408 0 -12 -21 c-6 -12 -294 -511 -640 -1110 -346 -599 -629 -1094 -629
-1099 0 -7 142 -9 402 -8 l402 3 225 391 c125 215 233 400 241 412 14 20 24 5
214 -324 110 -191 199 -352 199 -358 0 -7 -105 -195 -234 -419 l-234 -407
-1217 0 -1218 0 0 -370 0 -370 2500 0 2500 0 0 370 0 370 -401 2 -402 3 -115
200 c-63 110 -406 704 -762 1320 -356 616 -767 1329 -915 1585 -147 256 -278
481 -290 501 l-23 35 174 300 c95 164 173 302 174 307 0 4 -549 7 -1220 7
l-1220 0 0 -2117z m1564 -2317 c38 -16 43 -30 30 -93 l-6 -29 -46 23 c-52 26
-136 31 -166 8 -22 -17 -24 -61 -3 -82 8 -9 54 -24 102 -34 47 -10 100 -28
117 -40 58 -42 73 -121 37 -195 -38 -79 -139 -117 -254 -95 -110 20 -115 24
-115 98 l0 64 40 -32 c33 -27 52 -34 100 -37 33 -2 71 -1 85 2 62 16 86 82 41
111 -14 9 -55 21 -92 26 -122 17 -174 65 -174 159 0 80 33 129 107 156 45 17
144 12 197 -10z m1392 -2 c56 -27 84 -75 84 -141 0 -61 -17 -102 -56 -132
l-27 -21 23 -52 c12 -29 38 -83 56 -120 l34 -68 -59 0 -58 0 -46 103 -46 102
-40 3 -41 3 0 -105 0 -106 -50 0 -50 0 0 274 0 275 28 4 c63 11 209 0 248 -19z
m-677 -211 c46 -126 92 -249 102 -275 l19 -48 -59 0 -59 0 -19 58 -20 57 -98
0 -98 0 -19 -57 -20 -58 -55 0 c-30 0 -53 4 -51 9 2 4 46 128 98 274 l95 267
50 0 50 0 84 -227z m1424 -41 c53 -147 97 -271 97 -275 0 -4 -26 -7 -57 -5
l-57 3 -17 55 -16 55 -100 3 -100 3 -17 -61 -17 -60 -56 0 c-40 0 -54 3 -51
12 3 7 47 131 99 276 l93 262 51 0 50 0 98 -268z"/>
<path d="M2785 488 c-3 -8 -5 -46 -3 -84 l3 -69 57 0 c71 1 99 23 101 79 1 53
-28 78 -97 84 -43 3 -57 1 -61 -10z"/>
<path d="M2135 419 c-10 -29 -55 -163 -55 -166 0 -2 29 -3 64 -3 l65 0 -30 87
c-32 94 -36 103 -44 82z"/>
<path d="M3523 363 c-40 -127 -43 -113 31 -113 l65 0 -31 90 c-16 50 -33 90
-37 90 -4 0 -17 -30 -28 -67z"/>
<path d="M2560 4995 c0 -2 409 -712 909 -1577 499 -865 1048 -1816 1220 -2112
l311 -540 0 2117 0 2117 -1220 0 c-671 0 -1220 -2 -1220 -5z"/>
</g>
</svg>
